<?xml version="1.0" encoding="UTF-8" standalone="no"?>
<svg
  xmlns:dc="http://purl.org/dc/elements/1.1/"
  xmlns:cc="http://creativecommons.org/ns#"
  xmlns:rdf="http://www.w3.org/1999/02/22-rdf-syntax-ns#"
  xmlns:svg="http://www.w3.org/2000/svg"
  xmlns="http://www.w3.org/2000/svg"
   viewBox="0 0 288 288"
   height="288"
   width="288"
   xml:space="preserve"
   id="svg2"
   version="1.1">
  <metadata
     id="metadata8">
    <rdf:RDF>
      <cc:Work
         rdf:about="">
        <dc:format>image/svg+xml</dc:format>
        <dc:type
           rdf:resource="http://purl.org/dc/dcmitype/StillImage" />
      </cc:Work>
    </rdf:RDF>
  </metadata>
  <defs
     id="defs6">
    <clipPath
       id="clipPath18"
       clipPathUnits="userSpaceOnUse">
      <path
         id="path16"
         d="M 0,216 H 216 V 0 H 0 Z" />
    </clipPath>
  </defs>
  <g
     transform="matrix(1.3333333,0,0,-1.3333333,0,288)"
     id="g10">
    <g
       id="g12">
      <g
         clip-path="url(#clipPath18)"
         id="g14">
        <g
           transform="translate(108.1075,201.6759)"
           id="g28">
          <path
             id="path30"
             style="fill:#af1f36;fill-opacity:1;fill-rule:nonzero;stroke:none"
             d="m 0,0 v -20.005 h -4.827 c -1.249,5.22 -3.528,7.761 -6.934,10.543 -3.405,2.78 -7.265,4.171 -11.577,4.171 -3.604,0 -6.911,-1.037 -9.916,-3.109 -3.011,-2.072 -5.488,-4.593 -6.645,-6.668 -2.262,-4.053 -3.277,-9.48 -3.277,-14.728 0,-3.444 0.736,-7.078 2.041,-11.32 1.304,-4.243 4.201,-6.651 6.127,-7.664 3.122,-1.641 6.385,-3.257 10.81,-3.257 3.633,0 6.962,0.794 9.982,2.384 3.022,1.589 10.402,6.4 13.75,10.287 v -10.271 c -3.233,-3.375 -9.098,-6.884 -12.603,-8.4 -3.506,-1.52 -8.784,-2.32 -13.465,-2.32 -6.158,0 -11.627,1.237 -16.407,3.704 -4.783,2.47 -8.47,6.016 -11.069,10.641 -2.596,4.626 -3.893,9.55 -3.893,14.771 0,5.505 1.438,10.723 4.32,15.664 2.878,4.936 6.767,8.769 11.662,11.49 4.894,2.727 10.096,4.087 15.602,4.087 4.056,0 8.339,-0.88 12.852,-2.638 2.611,-1.023 4.269,-1.534 4.982,-1.534 0.905,0 1.695,0.335 2.36,1.002 0.668,0.667 1.101,1.723 1.298,3.17 z" />
        </g>
        <g
           transform="translate(78.8595,89.0683)"
           id="g32">
          <path
             id="path34"
             style="fill:#af1f36;fill-opacity:1;fill-rule:nonzero;stroke:none"
             d="m 0,0 c 4.993,0 8.806,1.705 11.438,5.114 3.586,4.603 5.381,6.923 5.381,16.612 0,7.805 -1.225,11.622 -3.678,16.285 -1.945,3.65 -4.439,6.13 -7.49,7.447 -2.153,0.927 -5.727,1.374 -10.718,1.345 V 6.595 c 0,-2.514 -0.045,-5.584 -0.045,-6.585 m -23.145,-8.156 v 7.741 h 2.018 c 1.765,0 3.119,0.274 4.058,0.829 0.944,0.552 1.639,1.308 2.088,2.265 0.269,0.628 0.404,0.027 0.404,3.167 v 35.401 c 0,3.11 -0.164,2.775 -0.496,3.553 -0.328,0.778 -0.993,1.459 -1.996,2.04 -1.001,0.584 -2.353,0.877 -4.058,0.877 h -2.018 v 4.945 H -1.03 c 7.264,0 13.11,-0.986 17.535,-2.959 5.411,-2.423 9.516,-6.085 12.312,-10.989 2.796,-4.905 4.193,-10.449 4.193,-16.641 0,-4.276 -0.689,-8.216 -2.063,-11.817 C 29.572,6.663 27.793,3.688 25.609,1.341 23.428,-1.006 20.907,-2.891 18.052,-4.312 15.198,-5.731 11.705,-6.831 7.578,-7.608 5.756,-7.966 2.886,-8.146 -1.03,-8.146 Z" />
        </g>
        <g
           transform="translate(134.2791,88.4058)"
           id="g36">
          <path
             id="path38"
             style="fill:#af1f36;fill-opacity:1;fill-rule:nonzero;stroke:none"
             d="m 0,0 c 1.336,-0.035 4.062,-0.011 5.796,-0.011 h 3.635 c 5.68,0 8.191,0.353 11.075,2.248 2.138,1.405 2.712,4.282 2.712,9.612 h 8.299 l -0.49,-19.332 h -54.203 v 7.515 h 2.017 c 1.766,0 3.185,0.313 4.262,0.94 0.776,0.418 1.375,1.486 1.793,2.502 0.33,0.718 0.493,0.984 0.493,1.939 v 36.484 c 0,1.399 -0.074,2.186 -0.224,2.815 -0.3,1.045 -0.853,1.853 -1.658,2.422 -1.138,0.836 -2.693,1.256 -4.666,1.256 h -2.017 v 4.944 H 31.027 V 35.351 h -8.178 c -0.868,4.395 -1.564,7.803 -3.135,9.718 -1.569,1.912 -2.584,2.398 -4.006,3.196 -1.534,0.864 -4.814,0.809 -9.417,0.809 H 0.01 V 26.193 h 1.211 c 3.857,0 6.653,0.773 8.388,3.197 1.734,2.421 1.143,5.35 1.194,10.043 h 7.619 V 7.588 h -7.563 c -0.358,3.467 -0.14,6.186 -1.291,8.399 C 8.416,18.2 8.177,18.076 6.651,18.84 5.125,19.603 2.911,19.985 0.01,19.985 V 4.583" />
        </g>
        <g
           transform="translate(129.4831,151.4753)"
           id="g40">
          <path
             id="path42"
             style="fill:#af1f36;fill-opacity:1;fill-rule:nonzero;stroke:none"
             d="m 0,0 c -2.618,-3.194 -7.635,-3.413 -11.204,-0.484 -3.569,2.926 -4.34,7.891 -1.717,11.084 l 23.29,28.397 c 2.621,3.193 7.639,3.411 11.208,0.482 3.569,-2.929 4.338,-7.889 1.719,-11.085 z m 35.762,23.902 c -0.573,7.877 -4.334,14.446 -11.272,19.702 -6.013,5.374 -12.975,7.593 -20.884,6.651 -7.909,-0.938 -14.595,-4.736 -20.055,-11.388 -4.86,-5.93 -7.424,-12.398 -7.684,-19.409 -0.329,-8.872 3.304,-16.425 10.906,-22.661 7.58,-6.217 15.798,-8.164 24.652,-5.841 6.677,1.745 12.351,5.462 17.014,11.147 5.45,6.653 7.895,13.92 7.323,21.799" />
        </g>
      </g>
    </g>
  </g>
</svg>