<svg xmlns="http://www.w3.org/2000/svg" xmlns:svg="http://www.w3.org/2000/svg" version="1.2" id="svg7" viewBox="0 0 209.8 219.69">
  <defs id="defs7"/>
  <title id="title1">codeforphilly_rob1</title>
  <style id="style1">
		.s0 { fill: #b01e36 } 
	</style>
  <g id="Layer 1" transform="translate(-278.79999,-183.60925)">
    <g id="-e-CODE logo">
      <g id="g1">
        <g id="&lt;Group&gt;">
          <path id="&lt;Compound Path&gt;" class="s0" d="m 383.9,184.1 v 36.3 h -8.7 c -2.3,-9.5 -6.4,-14.1 -12.6,-19.1 q -9.3,-7.6 -21,-7.6 -9.9,0 -18,5.7 c -5.5,3.7 -10,8.3 -12.1,12.1 -4.1,7.3 -6,17.2 -6,26.7 0,6.2 1.4,12.8 3.7,20.5 2.4,7.7 7.7,12.1 11.2,14 5.6,2.9 11.6,5.9 19.6,5.9 q 9.9,0 18.1,-4.4 c 5.5,-2.8 18.9,-11.6 25,-18.6 v 18.6 c -5.9,6.1 -16.5,12.5 -22.9,15.3 -6.4,2.7 -15.9,4.2 -24.4,4.2 q -16.8,0 -29.8,-6.8 -13.1,-6.7 -20.1,-19.3 -7.1,-12.6 -7.1,-26.8 0,-15 7.9,-28.4 7.8,-13.5 21.1,-20.9 13.3,-7.4 28.3,-7.4 11.1,0 23.4,4.8 7.1,2.8 9,2.8 2.5,0 4.3,-1.8 1.8,-1.9 2.4,-5.8 z"/>
        </g>
      </g>
      <g id="g3">
        <g id="g2">
          <path id="path1" class="s0" d="m 279.5,403.3 v -14 h 3.7 q 4.8,0 7.4,-1.5 2.5,-1.6 3.8,-4.2 c 0.4,-1.1 0.7,0 0.7,-5.7 v -64.3 c 0,-5.6 -0.3,-5 -0.9,-6.4 q -0.9,-2.1 -3.6,-3.7 -2.8,-1.6 -7.4,-1.6 h -3.7 v -9 H 329 q 19.7,0 31.8,5.4 14.7,6.6 22.3,19.9 7.7,13.4 7.6,30.2 0,11.7 -3.7,21.5 -3.7,9.8 -9.7,16.2 -5.9,6.4 -13.7,10.3 -7.8,3.8 -19,5.9 -5,1 -15.6,1 z m 51.3,-14.8 q 13.5,0 20.7,-9.3 c 6.5,-8.3 9.8,-12.5 9.8,-30.1 0,-14.2 -2.2,-21.1 -6.7,-29.6 q -5.3,-9.9 -13.6,-13.5 -5.9,-2.5 -19.4,-2.4 v 73 c 0,4.5 -0.1,10.1 -0.1,11.9"/>
        </g>
      </g>
      <g id="g5">
        <g id="g4">
          <path id="path3" class="s0" d="m 431.4,389.7 c 2.5,0.1 7.4,0 10.6,0 h 6.5 c 10.4,0 14.9,-0.6 20.2,-4 3.8,-2.6 4.9,-7.8 4.9,-17.5 h 15 l -0.8,35.1 h -98.4 v -13.6 h 3.6 q 4.8,0 7.8,-1.7 c 1.4,-0.8 2.5,-2.7 3.2,-4.6 0.6,-1.3 0.9,-1.8 0.9,-3.5 v -66.2 c 0,-2.6 -0.1,-4 -0.4,-5.1 q -0.8,-2.9 -3,-4.4 -3.1,-2.3 -8.5,-2.3 h -3.6 v -9 h 98.4 v 32.7 h -14.9 c -1.6,-8 -2.8,-14.2 -5.7,-17.7 -2.8,-3.5 -4.7,-4.3 -7.3,-5.8 -2.7,-1.6 -8.7,-1.5 -17,-1.5 h -11.5 v 41.6 h 2.2 c 7,0 12.1,-1.4 15.3,-5.8 3.1,-4.4 2,-9.7 2.1,-18.3 h 13.9 V 376 h -13.8 c -0.6,-6.3 -0.2,-11.3 -2.3,-15.3 -2.1,-4 -2.5,-3.8 -5.3,-5.2 q -4.2,-2.1 -12.1,-2.1 v 28"/>
        </g>
      </g>
      <g id="g7">
        <g id="g6">
          <path id="path5" class="s0" d="m 487.6,231.8 q -1.5,-21.4 -20.4,-35.7 -16.4,-14.7 -37.9,-12.1 -21.6,2.6 -36.4,20.7 -13.3,16.1 -14,35.2 -0.9,24.2 19.8,41.1 20.7,17 44.8,10.7 18.1,-4.8 30.8,-20.3 14.9,-18.1 13.3,-39.6 z m -64.9,43.4 c -4.7,5.8 -13.8,6.2 -20.3,0.9 -6.5,-5.3 -7.9,-14.3 -3.1,-20.1 l 42.2,-51.6 c 4.8,-5.8 13.9,-6.1 20.4,-0.8 6.5,5.3 7.9,14.3 3.1,20.1 z"/>
        </g>
      </g>
    </g>
  </g>
</svg>