<svg width="1067" height="400" viewBox="0 0 1067 400" fill="none" xmlns="http://www.w3.org/2000/svg">
<path d="M198.28 66.9877V111.069H187.643C184.892 99.5664 179.871 93.9677 172.363 87.8384C164.861 81.7117 156.357 78.6464 146.855 78.6464C138.913 78.6464 131.625 80.9317 125.005 85.4971C118.371 90.0624 112.911 95.6184 110.361 100.189C105.377 109.121 103.141 121.078 103.141 132.644C103.141 140.233 104.763 148.241 107.639 157.588C110.512 166.937 116.896 172.244 121.139 174.474C128.019 178.092 135.208 181.653 144.959 181.653C152.964 181.653 160.299 179.902 166.955 176.398C173.613 172.897 189.876 162.296 197.253 153.732V176.364C190.129 183.8 177.204 191.532 169.483 194.874C161.756 198.222 150.127 199.985 139.812 199.985C126.243 199.985 114.192 197.26 103.657 191.824C93.1199 186.382 84.9932 178.568 79.2665 168.376C73.5479 158.181 70.6892 147.333 70.6892 135.829C70.6892 123.698 73.8585 112.198 80.2092 101.313C86.5505 90.4357 95.1185 81.9904 105.907 75.9931C116.689 69.9851 128.152 66.9877 140.285 66.9877C149.224 66.9877 158.661 68.9277 168.605 72.7997C174.359 75.0557 178.013 76.1797 179.583 76.1797C181.577 76.1797 183.319 75.4424 184.784 73.9731C186.255 72.5037 187.209 70.1757 187.643 66.9877H198.28Z" fill="#AF2137"/>
<path d="M133.831 315.121C144.833 315.121 153.235 311.365 159.034 303.853C166.938 293.709 170.893 288.597 170.893 267.247C170.893 250.049 168.193 241.638 162.789 231.363C158.502 223.321 153.006 217.854 146.283 214.953C141.539 212.911 133.665 211.925 122.666 211.989V300.589C122.666 306.129 122.566 312.893 122.566 315.099M71.566 333.07V316.013H76.0127C79.9033 316.013 82.8873 315.41 84.9553 314.186C87.0353 312.971 88.566 311.305 89.5553 309.197C90.1487 307.813 90.4447 309.135 90.4447 302.217V224.211C90.4447 217.357 90.0847 218.095 89.354 216.381C88.6313 214.667 87.1647 213.166 84.9553 211.886C82.75 210.599 79.77 209.953 76.0127 209.953H71.566V199.057H131.561C147.567 199.057 160.45 201.23 170.201 205.578C182.123 210.915 191.169 218.986 197.33 229.79C203.491 240.599 206.57 252.817 206.57 266.459C206.57 275.882 205.053 284.563 202.025 292.501C198.994 300.438 195.073 306.994 190.262 312.165C185.455 317.338 179.899 321.491 173.61 324.623C167.321 327.749 159.623 330.173 150.53 331.885C146.515 332.673 140.19 333.07 131.561 333.07H71.566Z" fill="#AF2137"/>
<path d="M255.95 316.581C258.894 316.658 264.9 316.605 268.722 316.605H276.731C289.247 316.605 294.78 315.827 301.135 311.653C305.847 308.555 307.111 302.215 307.111 290.471H325.398L324.318 333.07H204.88V316.511H209.326C213.218 316.511 216.343 315.821 218.716 314.439C220.427 313.517 221.747 311.163 222.668 308.925C223.395 307.345 223.755 306.757 223.755 304.654V224.259C223.755 221.177 223.591 219.442 223.26 218.057C222.599 215.754 221.382 213.974 219.606 212.721C217.1 210.878 213.672 209.953 209.326 209.953H204.88V199.057H324.318V238.685H306.299C304.386 228.999 302.851 221.489 299.39 217.27C295.932 213.057 293.696 211.986 290.563 210.227C287.183 208.325 279.955 208.446 269.814 208.446H255.971V258.863H258.64C267.139 258.863 273.3 257.161 277.123 251.819C280.944 246.485 279.642 240.031 279.754 229.689H296.543V299.861H279.879C279.088 292.221 279.57 286.229 277.032 281.353C274.495 276.478 273.967 276.749 270.604 275.067C267.242 273.386 262.366 272.543 255.971 272.543V306.481" fill="#AF2137"/>
<path d="M245.382 177.606C239.612 184.644 228.559 185.127 220.694 178.672C212.83 172.224 211.131 161.284 216.911 154.248L268.231 91.6751C274.006 84.6404 285.063 84.1591 292.927 90.6137C300.791 97.0671 302.486 107.998 296.715 115.038L245.382 177.606ZM324.184 124.938C322.92 107.579 314.635 93.1057 299.347 81.5244C286.096 69.6831 270.755 64.7924 253.327 66.8671C235.9 68.9351 221.167 77.3031 209.138 91.9631C198.427 105.027 192.778 119.282 192.204 134.731C191.479 154.28 199.484 170.923 216.236 184.663C232.939 198.362 251.048 202.654 270.558 197.535C285.27 193.688 297.772 185.499 308.048 172.972C320.056 158.311 325.444 142.298 324.184 124.938Z" fill="#AF2137"/>
<path d="M401.883 260.425C403.281 260.624 405.052 260.773 407.217 260.873C409.369 260.972 411.615 261.024 413.94 261.024C420.513 261.024 426.035 260.492 430.477 259.426C434.933 258.365 438.523 256.886 441.24 254.994C443.972 253.1 445.928 250.808 447.12 248.117C448.324 245.426 448.915 242.489 448.915 239.3C448.915 235.38 448.023 231.99 446.229 229.136C444.435 226.28 441.311 224.052 436.855 222.458C434.529 221.662 431.659 221.081 428.244 220.713C424.819 220.349 420.619 220.166 415.629 220.166H401.883V260.425ZM414.335 281.45C412.147 281.45 409.983 281.418 407.865 281.352C405.736 281.285 403.744 281.152 401.883 280.953V333.07H377.464V199.737H415.932C422.376 199.737 428.001 200.021 432.828 200.586C437.641 201.149 441.935 201.998 445.732 203.125C454.827 205.917 461.84 210.366 466.759 216.477C471.665 222.59 474.132 230.365 474.132 239.797C474.132 246.242 472.799 252.038 470.137 257.185C467.488 262.334 463.6 266.702 458.485 270.29C453.368 273.876 447.12 276.636 439.749 278.56C432.376 280.488 423.905 281.45 414.335 281.45Z" fill="#2E58A5"/>
<path d="M524.451 254.645H586.236V199.737H610.643V333.07H586.236V275.073H524.451V333.07H500.041V199.737H524.451V254.645Z" fill="#2E58A5"/>
<path d="M642.537 199.737H666.947V333.071H642.537V199.737Z" fill="#2E58A5"/>
<path d="M723.257 199.737V312.642H785.637V333.07H698.838V199.737H723.257Z" fill="#2E58A5"/>
<path d="M832.969 199.737V312.642H895.351V333.07H808.55V199.737H832.969Z" fill="#2E58A5"/>
<path d="M940.289 257.135L975.771 199.737H1002.88L952.348 279.359V333.07H927.941V279.359L877.416 199.737H904.519L939.989 257.135H940.289Z" fill="#2E58A5"/>
<path d="M625.909 139.512H618.373V98.3583H644.578V104.664H625.909V115.305H641.872V121.61H625.909V139.512Z" fill="#2E58A5"/>
<path d="M697.42 118.935C697.42 116.433 697.112 114.244 696.498 112.368C695.883 110.492 695.032 108.928 693.944 107.677C692.858 106.427 691.566 105.493 690.07 104.879C688.574 104.263 686.932 103.956 685.148 103.956C683.364 103.956 681.723 104.263 680.227 104.879C678.731 105.493 677.439 106.427 676.351 107.677C675.264 108.928 674.414 110.492 673.799 112.368C673.183 114.244 672.876 116.433 672.876 118.935C672.876 121.437 673.183 123.625 673.799 125.501C674.414 127.377 675.264 128.936 676.351 130.176C677.439 131.417 678.731 132.351 680.227 132.976C681.723 133.601 683.364 133.913 685.148 133.913C686.932 133.913 688.574 133.601 690.07 132.976C691.566 132.351 692.858 131.417 693.944 130.176C695.032 128.936 695.883 127.377 696.498 125.501C697.112 123.625 697.42 121.437 697.42 118.935ZM705.202 118.935C705.202 122.072 704.756 124.948 703.863 127.563C702.972 130.176 701.671 132.427 699.959 134.313C698.246 136.2 696.144 137.667 693.652 138.712C691.162 139.757 688.327 140.28 685.148 140.28C681.97 140.28 679.134 139.757 676.644 138.712C674.151 137.667 672.051 136.2 670.338 134.313C668.626 132.427 667.323 130.176 666.434 127.563C665.539 124.948 665.094 122.072 665.094 118.935C665.094 115.797 665.539 112.921 666.434 110.307C667.323 107.693 668.626 105.443 670.338 103.556C672.051 101.669 674.151 100.203 676.644 99.1575C679.134 98.1121 681.97 97.5895 685.148 97.5895C688.327 97.5895 691.162 98.1121 693.652 99.1575C696.144 100.203 698.246 101.669 699.959 103.556C701.671 105.443 702.972 107.693 703.863 110.307C704.756 112.921 705.202 115.797 705.202 118.935Z" fill="#2E58A5"/>
<path d="M740.204 117.274C741.927 117.274 743.388 117.197 744.587 117.043C745.788 116.89 746.797 116.659 747.616 116.351C749.135 115.778 750.184 114.994 750.771 113.998C751.353 113.005 751.645 111.861 751.645 110.569C751.645 109.462 751.415 108.483 750.955 107.631C750.492 106.781 749.708 106.109 748.601 105.617C747.883 105.29 746.981 105.047 745.895 104.894C744.807 104.741 743.464 104.663 741.865 104.663H736.483V117.274H740.204ZM759.397 110.722C759.397 113.594 758.603 116.029 757.012 118.027C755.424 120.027 752.968 121.509 749.647 122.473V122.595L761.888 139.511H752.845L741.649 123.579H736.483V139.511H728.947V98.3579H741.465C743.537 98.3579 745.464 98.4765 747.248 98.7112C749.032 98.9472 750.559 99.3019 751.831 99.7725C754.249 100.695 756.116 102.065 757.428 103.879C758.74 105.694 759.397 107.975 759.397 110.722Z" fill="#2E58A5"/>
<path d="M881.354 86.0721L888.715 108.731H912.536L893.264 122.735L900.626 145.395L881.354 131.389L862.079 145.395L869.443 122.735L850.167 108.731H873.99L881.354 86.0721Z" fill="#2E58A5"/>
<path d="M495.314 86.0721L502.676 108.731H526.498L507.224 122.735L514.588 145.395L495.314 131.389L476.042 145.395L483.403 122.735L464.131 108.731H487.951L495.314 86.0721Z" fill="#2E58A5"/>
<path d="M1002.8 73.1227H377.464V66.4027H1002.8V73.1227Z" fill="#C8C8C8"/>
<path d="M1002.8 172.8H377.464V166.08H1002.8V172.8Z" fill="#C8C8C8"/>
</svg>
